<mxfile host="app.diagrams.net" modified="2022-07-26T06:23:20.574Z" agent="5.0 (Macintosh; Intel Mac OS X 10_15_7) AppleWebKit/605.1.15 (KHTML, like Gecko) Version/15.5 Safari/605.1.15" etag="9x6uIEbknwFYqn9HwH-2" version="20.1.3" type="github">
  <diagram id="Q0fZODQc7oMKUDDKXAU0" name="第 1 页">
    <mxGraphModel dx="1426" dy="825" grid="1" gridSize="10" guides="1" tooltips="1" connect="1" arrows="1" fold="1" page="1" pageScale="1" pageWidth="827" pageHeight="1169" math="0" shadow="0">
      <root>
        <mxCell id="0" />
        <mxCell id="1" parent="0" />
        <mxCell id="FDIKee2J-Dc6xps9-5ap-1" value="" style="shape=ext;double=1;rounded=0;whiteSpace=wrap;html=1;fontSize=18;fillColor=#f5f5f5;fontColor=#333333;strokeColor=#666666;" vertex="1" parent="1">
          <mxGeometry x="50" y="30" width="540" height="500" as="geometry" />
        </mxCell>
        <mxCell id="FDIKee2J-Dc6xps9-5ap-2" value="Upload" style="text;strokeColor=none;fillColor=none;html=1;fontSize=24;fontStyle=1;verticalAlign=middle;align=center;" vertex="1" parent="1">
          <mxGeometry x="50" y="30" width="100" height="40" as="geometry" />
        </mxCell>
        <mxCell id="FDIKee2J-Dc6xps9-5ap-3" value="UPload" style="shape=ext;double=1;rounded=1;whiteSpace=wrap;html=1;fontSize=18;" vertex="1" parent="1">
          <mxGeometry x="220" y="70" width="120" height="80" as="geometry" />
        </mxCell>
        <mxCell id="FDIKee2J-Dc6xps9-5ap-7" value="" style="shape=curlyBracket;whiteSpace=wrap;html=1;rounded=1;fontSize=18;direction=south;" vertex="1" parent="1">
          <mxGeometry x="220" y="160" width="120" height="20" as="geometry" />
        </mxCell>
        <mxCell id="FDIKee2J-Dc6xps9-5ap-8" value="/healthy" style="shape=ext;double=1;rounded=1;whiteSpace=wrap;html=1;fontSize=18;" vertex="1" parent="1">
          <mxGeometry x="150" y="180" width="120" height="80" as="geometry" />
        </mxCell>
        <mxCell id="FDIKee2J-Dc6xps9-5ap-9" value="http请求" style="shape=singleArrow;whiteSpace=wrap;html=1;fontSize=18;" vertex="1" parent="1">
          <mxGeometry x="110" y="80" width="100" height="60" as="geometry" />
        </mxCell>
        <mxCell id="FDIKee2J-Dc6xps9-5ap-10" value="" style="verticalLabelPosition=bottom;verticalAlign=top;html=1;shape=mxgraph.basic.rect;fillColor2=none;strokeWidth=1;size=20;indent=5;fontSize=18;" vertex="1" parent="1">
          <mxGeometry x="135" y="300" width="140" height="60" as="geometry" />
        </mxCell>
        <mxCell id="FDIKee2J-Dc6xps9-5ap-11" value="" style="edgeStyle=segmentEdgeStyle;endArrow=classic;html=1;rounded=0;fontSize=18;exitX=0.45;exitY=1.013;exitDx=0;exitDy=0;exitPerimeter=0;" edge="1" parent="1" source="FDIKee2J-Dc6xps9-5ap-8">
          <mxGeometry width="50" height="50" relative="1" as="geometry">
            <mxPoint x="390" y="450" as="sourcePoint" />
            <mxPoint x="204" y="300" as="targetPoint" />
          </mxGeometry>
        </mxCell>
        <mxCell id="FDIKee2J-Dc6xps9-5ap-12" value="response：200" style="text;html=1;strokeColor=none;fillColor=none;align=center;verticalAlign=middle;whiteSpace=wrap;rounded=0;fontSize=18;" vertex="1" parent="1">
          <mxGeometry x="140" y="315" width="130" height="30" as="geometry" />
        </mxCell>
        <mxCell id="FDIKee2J-Dc6xps9-5ap-13" value="/task_prefix/task_id" style="shape=ext;double=1;rounded=1;whiteSpace=wrap;html=1;fontSize=18;" vertex="1" parent="1">
          <mxGeometry x="294" y="180" width="166" height="80" as="geometry" />
        </mxCell>
        <mxCell id="FDIKee2J-Dc6xps9-5ap-14" value="StoreManager" style="shape=ext;double=1;rounded=1;whiteSpace=wrap;html=1;fontSize=18;" vertex="1" parent="1">
          <mxGeometry x="317" y="300" width="120" height="80" as="geometry" />
        </mxCell>
        <mxCell id="FDIKee2J-Dc6xps9-5ap-15" value="" style="endArrow=classic;html=1;rounded=0;fontSize=18;exitX=0.5;exitY=1;exitDx=0;exitDy=0;entryX=0.5;entryY=0;entryDx=0;entryDy=0;" edge="1" parent="1" source="FDIKee2J-Dc6xps9-5ap-13" target="FDIKee2J-Dc6xps9-5ap-14">
          <mxGeometry width="50" height="50" relative="1" as="geometry">
            <mxPoint x="390" y="450" as="sourcePoint" />
            <mxPoint x="440" y="400" as="targetPoint" />
          </mxGeometry>
        </mxCell>
        <mxCell id="FDIKee2J-Dc6xps9-5ap-16" value="" style="endArrow=classic;html=1;rounded=0;fontSize=18;exitX=0.5;exitY=1;exitDx=0;exitDy=0;entryX=0.5;entryY=0;entryDx=0;entryDy=0;" edge="1" parent="1" source="FDIKee2J-Dc6xps9-5ap-14" target="FDIKee2J-Dc6xps9-5ap-17">
          <mxGeometry width="50" height="50" relative="1" as="geometry">
            <mxPoint x="390" y="450" as="sourcePoint" />
            <mxPoint x="440" y="400" as="targetPoint" />
          </mxGeometry>
        </mxCell>
        <mxCell id="FDIKee2J-Dc6xps9-5ap-17" value="io.Reader返回分片" style="rounded=0;whiteSpace=wrap;html=1;fontSize=18;" vertex="1" parent="1">
          <mxGeometry x="310.5" y="450" width="133" height="60" as="geometry" />
        </mxCell>
        <mxCell id="FDIKee2J-Dc6xps9-5ap-18" value="ReadPiece" style="text;html=1;strokeColor=none;fillColor=none;align=center;verticalAlign=middle;whiteSpace=wrap;rounded=0;fontSize=18;" vertex="1" parent="1">
          <mxGeometry x="390" y="400" width="100" height="30" as="geometry" />
        </mxCell>
        <mxCell id="FDIKee2J-Dc6xps9-5ap-19" value="taskid，peerid，range" style="text;html=1;strokeColor=none;fillColor=none;align=center;verticalAlign=middle;whiteSpace=wrap;rounded=0;labelBackgroundColor=#FFFFFF;fontSize=18;fontColor=#000000;" vertex="1" parent="1">
          <mxGeometry x="390" y="270" width="186" height="30" as="geometry" />
        </mxCell>
      </root>
    </mxGraphModel>
  </diagram>
</mxfile>
